{"title":"Rev S03E02 Xvid RB58.avi","uid":9867546,"size":270819664,"categoryP":"video","categoryS":"tv_shows","magnet":"?xt=urn:btih:8fef8a6994bd75ae4a241dbc2fc262d9a152a052&amp;dn=Rev+S03E02+Xvid+RB58.avi&amp;tr=udp%3A%2F%2Ftracker.openbittorrent.com%3A80&amp;tr=udp%3A%2F%2Fopen.demonii.com%3A1337&amp;tr=udp%3A%2F%2Ftracker.coppersurfer.tk%3A6969&amp;tr=udp%3A%2F%2Fexodus.desync.com%3A6969","seeders":1,"leechers":0,"uploader":"RedBaron58","files":1,"time":1396371218,"description":"Rev Series 3 Episode 2 BBC Comedy Xvid\n &lt;a href=&quot;\nhttp://www.imdb.com/title/tt1588221/&quot; rel=&quot;nofollow&quot; target=&quot;_NEW&quot;&gt;\nhttp://www.imdb.com/title/tt1588221/&lt;/a&gt; \n\n\nPlease be patient My upload speed is limited, but I am online most the time and during the night.\nThank you for your kind comments and thumbs ups on my other torrents, your feedback is welcome.\n\n\nAbout the Episode:\nAdam is put on the spot when two of his friends ask him to carry out their marriage ceremony, \nthe one problem being the C of E's position on gay marriage. \nHe also signs up for a course in the hope of finding out how to rescue St Saviour's from the axe, \nbut struggles with leader Roland Wise's approach to ministry.\n\n\nI hope you enjoy.\n\n\nTechnical:\n\nGeneral\nComplete name                            : G:Rev S03E02 Xvid RB58.avi\nFormat                                   : AVI\nFormat/Info                              : Audio Video Interleave\nFile size                                : 258 MiB\nDuration                                 : 27mn 58s\nOverall bit rate                         : 1 291 Kbps\n\nVideo\nID                                       : 0\nFormat                                   : MPEG-4 Visual\nFormat profile                           : Advanced Simple@L4\nFormat settings, BVOP                    : 2\nFormat settings, QPel                    : No\nFormat settings, GMC                     : No warppoints\nFormat settings, Matrix                  : Default (H.263)\nCodec ID                                 : DIVX\nCodec ID/Info                            : Project Mayo\nCodec ID/Hint                            : DivX 4\nDuration                                 : 27mn 58s\nBit rate                                 : 1 149 Kbps\nWidth                                    : 704 pixels\nHeight                                   : 396 pixels\nDisplay aspect ratio                     : 16:9\nFrame rate                               : 25.000 fps\nColor space                              : YUV\nChroma subsampling                       : 4:2:0\nBit depth                                : 8 bits\nScan type                                : Progressive\nCompression mode                         : Lossy\nBits/(Pixel*Frame)                       : 0.165\nStream size                              : 230 MiB (89%)\nWriting library                          : XviD 64\n\nAudio\nID                                       : 1\nFormat                                   : MPEG Audio\nFormat version                           : Version 1\nFormat profile                           : Layer 3\nCodec ID                                 : 55\nCodec ID/Hint                            : MP3\nDuration                                 : 27mn 58s\nBit rate mode                            : Constant\nBit rate                                 : 128 Kbps\nChannel(s)                               : 2 channels\nSampling rate                            : 48.0 KHz\nCompression mode                         : Lossy\nStream size                              : 25.6 MiB (10%)\nAlignment                                : Aligned on interleaves\nInterleave, duration                     : 24 ms (0.60 video frame)","torrent":{"xt":"urn:btih:8fef8a6994bd75ae4a241dbc2fc262d9a152a052","amp;dn":"Rev+S03E02+Xvid+RB58.avi","amp;tr":["udp%3A%2F%2Ftracker.openbittorrent.com%3A80","udp%3A%2F%2Fopen.demonii.com%3A1337","udp%3A%2F%2Ftracker.coppersurfer.tk%3A6969","udp%3A%2F%2Fexodus.desync.com%3A6969"],"infoHash":"8fef8a6994bd75ae4a241dbc2fc262d9a152a052","infoHashBuffer":{"type":"Buffer","data":[143,239,138,105,148,189,117,174,74,36,29,188,47,194,98,217,161,82,160,82]},"announce":[],"urlList":[]}}